<svg width="106" height="71" viewBox="0 0 106 71" fill="none" xmlns="http://www.w3.org/2000/svg">
<path d="M20.5085 32.4448C12.216 31.866 0.993408 40.9372 0.993408 40.9372V70.6605H104.987V32.4448C104.987 32.4448 96.9955 37.7695 91.5432 36.8643C82.8402 35.4195 87.7622 20.4255 79.3138 17.8865C73.1943 16.0473 69.2203 23.4161 63.2681 21.0928C57.279 18.755 59.3191 10.7617 53.6407 7.7476C40.7984 0.930981 51.3537 41.2215 36.8144 40.9372C29.6347 40.7968 27.6721 32.9448 20.5085 32.4448Z" fill="url(#paint0_linear_483_2869)"/>
<path d="M0.993408 40.8044C0.993408 40.8044 12.216 31.7687 20.5085 32.3452C27.6721 32.8433 29.6347 40.6646 36.8144 40.8044C51.3537 41.0876 40.7984 0.954589 53.6407 7.74457C59.3191 10.7468 57.279 18.709 63.2681 21.0376C69.2203 23.3518 73.1943 16.0119 79.3138 17.8438C87.7622 20.3729 82.8402 35.3083 91.5432 36.7475C96.9955 37.6491 104.987 32.3452 104.987 32.3452" stroke="url(#paint1_linear_483_2869)" stroke-width="0.867335" stroke-linecap="round"/>
<path opacity="0.3" d="M9.9502 70.1632V1" stroke="#171724" stroke-width="0.173467" stroke-linecap="round" stroke-dasharray="0 0.17 2.43 0 0.17 2.43"/>
<path opacity="0.3" d="M24.3792 70.1632V1" stroke="#171724" stroke-width="0.173467" stroke-linecap="round" stroke-dasharray="0 0.17 2.43 0 0.17 2.43"/>
<path opacity="0.3" d="M38.3113 70.1632V1" stroke="#171724" stroke-width="0.173467" stroke-linecap="round" stroke-dasharray="0 0.17 2.43 0 0.17 2.43"/>
<path opacity="0.3" d="M52.7417 70.6607V1.49756" stroke="#171724" stroke-width="0.173467" stroke-linecap="round" stroke-dasharray="0 0.17 2.43 0 0.17 2.43"/>
<path opacity="0.3" d="M67.1716 70.6607V1.49756" stroke="#171724" stroke-width="0.173467" stroke-linecap="round" stroke-dasharray="0 0.17 2.43 0 0.17 2.43"/>
<path opacity="0.3" d="M81.6014 70.6607V1.49756" stroke="#171724" stroke-width="0.173467" stroke-linecap="round" stroke-dasharray="0 0.17 2.43 0 0.17 2.43"/>
<path opacity="0.3" d="M95.5327 70.6607V1.49756" stroke="#171724" stroke-width="0.173467" stroke-linecap="round" stroke-dasharray="0 0.17 2.43 0 0.17 2.43"/>
<g filter="url(#filter0_d_483_2869)">
<circle cx="52.7416" cy="7.46839" r="3.48304" fill="url(#paint2_linear_483_2869)"/>
<circle cx="52.7416" cy="7.46839" r="2.78917" stroke="white" stroke-width="1.38774"/>
</g>
<defs>
<filter id="filter0_d_483_2869" x="44.9219" y="0.51601" width="15.6394" height="15.6397" filterUnits="userSpaceOnUse" color-interpolation-filters="sRGB">
<feFlood flood-opacity="0" result="BackgroundImageFix"/>
<feColorMatrix in="SourceAlpha" type="matrix" values="0 0 0 0 0 0 0 0 0 0 0 0 0 0 0 0 0 0 127 0" result="hardAlpha"/>
<feOffset dy="0.867335"/>
<feGaussianBlur stdDeviation="2.16834"/>
<feColorMatrix type="matrix" values="0 0 0 0 0 0 0 0 0 0 0 0 0 0 0 0 0 0 0.1 0"/>
<feBlend mode="normal" in2="BackgroundImageFix" result="effect1_dropShadow_483_2869"/>
<feBlend mode="normal" in="SourceGraphic" in2="effect1_dropShadow_483_2869" result="shape"/>
</filter>
<linearGradient id="paint0_linear_483_2869" x1="52.9902" y1="6.9707" x2="52.9902" y2="70.6605" gradientUnits="userSpaceOnUse">
<stop stop-color="#44BF57" stop-opacity="0.3"/>
<stop offset="1" stop-color="#EDFFF0" stop-opacity="0.1"/>
</linearGradient>
<linearGradient id="paint1_linear_483_2869" x1="52.9902" y1="6.9707" x2="52.9902" y2="40.8059" gradientUnits="userSpaceOnUse">
<stop stop-color="#0A8C3E"/>
<stop offset="1" stop-color="#338740"/>
</linearGradient>
<linearGradient id="paint2_linear_483_2869" x1="52.7416" y1="3.98535" x2="52.7416" y2="10.9514" gradientUnits="userSpaceOnUse">
<stop stop-color="#0A8C3E"/>
<stop offset="1" stop-color="#338740"/>
</linearGradient>
</defs>
</svg>
